<?xml version="1.0" encoding="utf-8"?>
<!-- Generator: Adobe Illustrator 16.0.0, SVG Export Plug-In . SVG Version: 6.00 Build 0)  -->
<!DOCTYPE svg PUBLIC "-//W3C//DTD SVG 1.1//EN" "http://www.w3.org/Graphics/SVG/1.1/DTD/svg11.dtd">
<svg version="1.1" id="Layer_1" xmlns="http://www.w3.org/2000/svg" xmlns:xlink="http://www.w3.org/1999/xlink" x="0px" y="0px"
	 width="548px" height="170px" viewBox="0 0 548 170" enable-background="new 0 0 548 170" xml:space="preserve">
<g>
	<g>
		<defs>
			<path id="SVGID_1_" d="M9.681,10.671h493.855c0,0,33.861-3.146,33.34,32.505v113.242H39.374c0,0-29.693,1.049-30.214-35.65
				L9.681,10.671z"/>
		</defs>
		<clipPath id="SVGID_2_">
			<use xlink:href="#SVGID_1_"  overflow="visible"/>
		</clipPath>
		
			<rect x="4.535" y="5.835" clip-path="url(#SVGID_2_)" fill-rule="evenodd" clip-rule="evenodd" width="536.965" height="157.321"/>
	</g>
	<path fill-rule="evenodd" clip-rule="evenodd" fill="#00A651" d="M490.344,17.047H16.022l0.127,78.528
		c-0.023,6.427,1.792,25.853,24.498,26.652H498.76L490.344,17.047z"/>
	<path fill-rule="evenodd" clip-rule="evenodd" fill="#FFCB05" d="M506.326,17.047H325.157l5.778,3.612l8.926,11.773l3.758,7.849
		l-4.227,6.868l-7.528,1.542l-12.672,8.76l-12.647,17.17l-0.975,12.755l2.177,16.679l5.407,10.792l9.544,7.38h207.534l0.221-76.496
		l-0.006,0.001C530.447,45.733,533.23,18.201,506.326,17.047z"/>
	<g>
		<path fill="#FFFFFF" d="M335.969,50.282c0,0,1.692,40.138-0.846,56.635l18.046-2.912l0.564-29.598l12.969-2.426v27.414
			l16.074-1.212l3.077-66.189l-19.024,2.888l0.719,26.426l-13.814,2.182l1.163-17.581L335.969,50.282z"/>
		<path fill="#FFFFFF" d="M463.895,37.321c0,0,0.817,54.369,0,67.011h16.634l0.543-26.046c0,0,33.539-6.322,33.539-25.034
			C514.61,53.253,520.879,34.033,463.895,37.321z M480.799,64.633V48.194c0,0,15.814,0,16.088,6.576
			C496.887,54.77,497.977,60.333,480.799,64.633z"/>
		<path fill="#FFFFFF" d="M453.171,38.363c-11.449-14.643-33.337-18.034-48.896-7.574c-15.555,10.46-18.885,30.81-7.438,45.453
			c11.448,14.644,33.34,18.037,48.894,7.577C461.288,73.358,464.617,53.007,453.171,38.363z M431.407,75.907
			c-10.144,2.602-20.889-3.737-23.993-14.158c-3.105-10.422,2.6-20.978,12.744-23.581c10.146-2.601,20.888,3.74,23.994,14.161
			C447.259,62.75,441.554,73.306,431.407,75.907z"/>
	</g>
	<path fill-rule="evenodd" clip-rule="evenodd" fill="#005324" d="M291.326,99.987H181.339H54.801H34.495
		c-0.07,4.597,0.726,13.755,7.935,15.786h12.372h126.538h97.21C290.156,113.742,291.439,104.584,291.326,99.987z"/>
	<g>
		<path fill-rule="evenodd" clip-rule="evenodd" fill="#FFFFFF" d="M34.576,93.063V27.783H53.79c4.593,0,8.583,0.918,11.966,2.754
			c3.383,1.837,5.075,4.774,5.075,8.813v9.061c0,4.585-3.179,7.818-9.539,9.7c6.704,1.456,10.057,4.596,10.057,9.42v12.651
			c0,4.307-1.598,7.53-4.791,9.67c-3.195,2.139-7.002,3.209-11.421,3.209H34.576L34.576,93.063z M55.443,50.729V39.587
			c0-2.284-1.51-3.424-4.53-3.424v18.034C53.934,54.197,55.443,53.04,55.443,50.729L55.443,50.729z M55.443,81.226V64.71
			c0-2.275-1.51-3.412-4.53-3.412v23.385C53.934,84.684,55.443,83.53,55.443,81.226L55.443,81.226z"/>
		<path fill-rule="evenodd" clip-rule="evenodd" fill="#FFFFFF" d="M112.236,93.063H99.172v-2.049
			c-1.105,1.839-4.267,2.758-9.481,2.758c-8.049,0-12.072-2.76-12.072-8.28V74.895c0-2.367,0.976-4.429,2.928-6.189
			c1.952-1.759,5.879-3.958,11.786-6.597c3.42-1.515,5.129-2.729,5.129-3.64v-7.83c0-1.73-0.845-2.594-2.534-2.594
			c-1.933,0-2.897,2.109-2.897,6.328c0,0.758,0.052,1.88,0.154,3.368c0.139,1.487,0.208,2.609,0.208,3.368H78.158V50.551
			c0-7.131,5.87-10.696,17.608-10.696c10.98,0,16.469,3.716,16.469,11.151V93.063L112.236,93.063z M97.462,83.173V69.576
			c-3.379,0.728-5.069,2.061-5.069,4.001v9.596c0,1.606,0.879,2.41,2.638,2.41C96.652,85.583,97.462,84.779,97.462,83.173
			L97.462,83.173z"/>
		<path fill-rule="evenodd" clip-rule="evenodd" fill="#FFFFFF" d="M143.958,93.063h-9.338c-6.676,0-10.669-0.881-11.984-2.641
			c-1.315-1.761-1.971-5.144-1.971-10.151V48.045h-6.579v-7.811h6.579V29.582h14.773v10.652h8.001v7.811h-8.001v32.153
			c0,1.548,0.528,2.588,1.585,3.12c1.056,0.531,3.368,0.797,6.935,0.797V93.063L143.958,93.063z"/>
		<path fill-rule="evenodd" clip-rule="evenodd" fill="#FFFFFF" d="M176.228,93.063h-9.338c-6.674,0-10.669-0.881-11.983-2.641
			c-1.314-1.761-1.972-5.144-1.972-10.151V48.045h-6.578v-7.811h6.578V29.582h14.775v10.652h8v7.811h-8v32.153
			c0,1.548,0.528,2.588,1.584,3.12c1.056,0.531,3.368,0.797,6.935,0.797V93.063L176.228,93.063z"/>
		<path fill-rule="evenodd" clip-rule="evenodd" fill="#FFFFFF" d="M214.243,70.672h-19.789v12.323c0,1.787,0.844,2.683,2.532,2.683
			c1.655,0,2.482-0.894,2.482-2.679V72.376h14.774v10.721c0,7.117-5.786,10.675-17.359,10.675c-11.469,0-17.204-3.715-17.204-11.147
			V51.002c0-7.432,5.734-11.147,17.204-11.147c11.573,0,17.359,3.565,17.359,10.696V70.672L214.243,70.672z M199.469,62.766V50.642
			c0-1.732-0.827-2.597-2.482-2.597c-1.688,0-2.532,0.865-2.532,2.597v12.124H199.469L199.469,62.766z"/>
		<path fill-rule="evenodd" clip-rule="evenodd" fill="#FFFFFF" d="M254.513,62.111h-14.774V50.645c0-1.607-0.846-2.412-2.535-2.412
			c-1.689,0-2.534,0.773-2.534,2.321v42.508h-14.775V40.234h14.775v1.759c1.968-1.426,5.008-2.138,9.119-2.138
			c2.936,0,5.457,0.69,7.563,2.071c2.107,1.38,3.161,3.193,3.161,5.438V62.111L254.513,62.111z"/>
		<path fill-rule="evenodd" clip-rule="evenodd" fill="#FFFFFF" d="M296.042,40.538l-11.443,56.898
			c-1.173,5.838-2.751,9.375-4.736,10.615c-1.983,1.237-4.737,1.854-8.255,1.854h-10.302v-7.69c3.864,0,6.263-0.183,7.195-0.549
			c0.931-0.366,1.396-1.447,1.396-3.244c0-1.774-2.121-11.018-6.366-27.734l-7.662-30.149h14.789l6.131,30.09l4.842-30.09H296.042
			L296.042,40.538z"/>
	</g>
	<g>
		<ellipse fill-rule="evenodd" clip-rule="evenodd" fill="#BF8F14" cx="426.782" cy="109.361" rx="32.277" ry="3.817"/>
		<g>
			<path fill="#BF8F14" d="M354.659,75.437l-0.563,29.617l-18.307,2.956c-0.094,0.798-0.193,1.551-0.301,2.249l-0.742,4.836
				l25.834-4.17l0.565-29.672l4.55-0.852v-7.029L354.659,75.437z"/>
			<polygon fill="#BF8F14" points="361.545,61.488 362.603,42.999 355.813,43.83 354.742,62.563 			"/>
			<path fill="#BF8F14" d="M424.636,75.615c-4.636-1.896-8.38-5.9-9.899-10.997c-1.267-4.253-0.813-8.62,1.275-12.298
				c1.944-3.421,5.115-5.844,8.935-6.823c1.217-0.312,2.475-0.471,3.738-0.471c6.358,0,12.183,3.864,14.96,9.666
				c-0.12-0.623-0.273-1.246-0.457-1.868c-2.467-8.271-10.045-14.048-18.432-14.048c-1.48,0-2.955,0.186-4.388,0.553
				c-4.506,1.157-8.252,4.018-10.546,8.055c-2.441,4.296-2.977,9.377-1.505,14.31C410.572,69.264,417.114,74.742,424.636,75.615z"/>
			<path fill="#BF8F14" d="M459.886,40.058c-5.796-7.416-14.348-12.472-23.771-14.281c7.037,2.238,13.302,6.467,17.791,12.209
				c5.677,7.261,8.026,16.115,6.621,24.928c-1.422,8.903-6.494,16.691-14.282,21.927c-6.068,4.081-13.244,6.238-20.746,6.238
				c-11.585,0-22.598-5.241-29.462-14.021c-5.676-7.262-8.028-16.114-6.62-24.928c0.597-3.729,1.833-7.261,3.644-10.495l0.461-9.934
				l-6.748,1.025l-3.097,66.579l-16.653,1.256v6.555l23.07-1.741l1.63-35.02c1.246,4.243,3.325,8.289,6.19,11.954
				c7.353,9.405,19.134,15.021,31.512,15.021c8.026,0,15.702-2.311,22.202-6.682c4.968-3.342,8.908-7.656,11.617-12.616
				c-0.023-12.231-0.166-25.437-0.264-33.329C462.082,43.102,461.051,41.548,459.886,40.058z"/>
			<path fill="#BF8F14" d="M519.847,48.331c-2.436-3.335-6.565-5.956-12.28-7.783c-1.632-0.522-3.405-0.982-5.313-1.38
				c0.199,0.059,0.396,0.121,0.588,0.184c5.18,1.656,8.87,3.958,10.973,6.84c2.532,3.471,1.932,6.656,1.738,7.415
				c-0.037,4.478-1.892,8.632-5.517,12.347c-2.863,2.938-6.839,5.605-11.813,7.931c-7.021,3.281-13.939,4.927-16.225,5.416
				l-0.549,26.223h-17.106c-0.033,0.94-0.072,1.77-0.118,2.461l-0.245,3.788h23.943l0.561-26.742
				c3.367-0.827,9.006-2.447,14.771-5.141c5.26-2.458,9.491-5.309,12.573-8.47c4.029-4.13,6.13-8.784,6.246-13.84
				C522.385,56.107,522.759,52.327,519.847,48.331z"/>
			<path fill="#BF8F14" d="M488.268,55.828c1.595,0.157,3.597,0.446,5.418,0.975c0.468,0.135,0.875,0.276,1.24,0.417
				c0.949-1.143,0.971-1.933,0.967-2.062l-0.025-0.09l0.014-0.037c-0.179-4.302-9.5-5.484-14.14-5.63v14.197
				c2.636-0.705,4.782-1.431,6.526-2.148V55.828z"/>
		</g>
	</g>
	<path fill-rule="evenodd" clip-rule="evenodd" fill="#005324" d="M331.514,39.753c-18.367,2.169-29.958,11.687-35.368,29.927
		c-0.532-2.276-0.953-3.928-1.297-5.595c-0.352-1.704-0.687-3.414-0.928-5.136c-0.273-1.968-0.366-3.964-0.657-5.927
		c-0.89-5.992-5.699-9.582-11.56-8.473c-11.698,2.209-23.453,2.943-35.247,1.382c-7.113-0.943-14.292-1.816-20.68-5.692
		c-4.592-2.787-8.34-6.409-11.047-11.217c1.869,1.334,3.691,2.744,5.615,3.988c9.31,6.012,19.5,7.345,30.29,6.211
		c11.931-1.253,23.387-4.199,34.471-8.898c12.563-5.326,24.574-3.233,36.137,3.172C324.54,35.325,327.697,37.42,331.514,39.753z"/>
	<path fill-rule="evenodd" clip-rule="evenodd" fill="#005324" d="M345.755,35.559c-2.287-1.721-4.001-3.781-5.406-6.459
		c-3.44-6.554-8.636-10.508-15.662-12.493c0.493,7.824,3.057,14.024,7.95,18.711c1.944,1.863,2.364,3.797,2.111,6.268
		c-0.105,1.016-0.249,2.04-0.464,3.035c-18.903-1.99-37.641,15.872-38.364,37.393c-0.525,15.583,5.986,27.314,17.438,35.572
		c2.78,2.004,5.862,3.257,8.741,4.579c0.443,0.228,1.052,0.286,1.182,0.032c-6.228-4.963-11.573-11.757-14.212-19.876
		c-4.114-12.653-4.285-24.798,4.501-35.324c2.331-2.793,5.032-5.254,8.786-6.195c0.939,9.653-3.014,15.998-9.373,21.044
		c7.006-0.968,12.386-4.827,16.678-10.962c4.069-5.816,6.165-12.428,7.289-19.488c0.373-0.219,0.738-0.448,1.084-0.705
		c1.584-1.18,2.865-1.017,4.464-0.414c3.044,1.15,6.196,1.947,9.202,3.195c3.639,1.51,6.162-0.155,8.511-3.311
		C356.022,44.518,351.181,39.647,345.755,35.559z"/>
	<g>
		<ellipse fill-rule="evenodd" clip-rule="evenodd" fill="#00A24E" cx="157.745" cy="108.147" rx="1.79" ry="1.697"/>
		<path fill="#FFFFFF" d="M43.045,103.777h2.102l1.001,5.268h0.02l1.011-5.268h2.091v7.464h-1.296v-5.959h-0.02l-1.247,5.959h-1.1
			l-1.246-5.959h-0.021v5.959h-1.296V103.777z"/>
		<path fill="#FFFFFF" d="M52.148,105.47c1.63-0.03,2.082,1.004,2.082,2.958c0,1.926-0.53,2.96-2.082,2.96
			c-1.63,0.03-2.082-1.003-2.082-2.96C50.066,106.507,50.596,105.47,52.148,105.47z M52.148,110.404c0.55,0,0.727-0.574,0.727-1.977
			c0-1.399-0.177-1.974-0.727-1.974c-0.667,0-0.727,0.825-0.727,1.974C51.421,109.58,51.48,110.404,52.148,110.404z"/>
		<path fill="#FFFFFF" d="M54.956,103.777h1.355v2.363h0.02c0.284-0.451,0.628-0.671,1.139-0.671c1.11,0,1.62,0.868,1.62,2.958
			c0,2.092-0.51,2.96-1.62,2.96c-0.531,0-0.903-0.221-1.198-0.743h-0.02v0.597h-1.296V103.777z M57.027,110.28
			c0.59,0,0.708-0.629,0.708-1.853c0-1.223-0.118-1.85-0.708-1.85c-0.598,0-0.716,0.627-0.716,1.85
			C56.311,109.651,56.429,110.28,57.027,110.28z"/>
		<path fill="#FFFFFF" d="M59.914,103.693h1.355v1.234h-1.355V103.693z M59.914,105.618h1.355v5.623h-1.355V105.618z"/>
		<path fill="#FFFFFF" d="M62.271,103.777h1.354v7.464h-1.354V103.777z"/>
		<path fill="#FFFFFF" d="M65.737,108.649v0.45c0,0.657,0.167,1.305,0.668,1.305c0.453,0,0.638-0.364,0.717-1.055h1.217
			c-0.049,1.309-0.638,2.038-1.915,2.038c-1.963,0-2.042-1.611-2.042-3.011c0-1.504,0.276-2.907,2.101-2.907
			c1.582,0,1.935,1.13,1.935,2.854v0.326H65.737z M67.122,107.79c-0.03-0.856-0.129-1.336-0.688-1.336
			c-0.54,0-0.697,0.594-0.697,1.116v0.22H67.122z"/>
		<path fill="#FFFFFF" d="M71.52,103.777h2.367c1.159,0,1.994,0.46,1.994,1.893c0,0.804-0.364,1.422-1.062,1.631v0.02
			c0.776,0.116,1.277,0.744,1.277,1.734c0,1.174-0.541,2.187-2.19,2.187H71.52V103.777z M72.934,106.841h0.403
			c0.775,0,1.129-0.283,1.129-0.983c0-0.71-0.325-0.972-1.021-0.972h-0.511V106.841z M72.934,110.134h0.55
			c0.678,0,1.14-0.263,1.14-1.13c0-0.866-0.462-1.12-1.081-1.12h-0.609V110.134z"/>
		<path fill="#FFFFFF" d="M76.931,107.341v-0.136c0-1.295,0.835-1.735,1.855-1.735c1.61,0,1.915,0.713,1.915,1.726v2.96
			c0,0.522,0.029,0.762,0.167,1.086h-1.296c-0.089-0.18-0.127-0.398-0.167-0.583h-0.02c-0.315,0.583-0.697,0.729-1.345,0.729
			c-0.943,0-1.277-0.858-1.277-1.611c0-1.056,0.403-1.483,1.336-1.754l0.766-0.221c0.401-0.116,0.54-0.281,0.54-0.658
			c0-0.431-0.178-0.689-0.629-0.689c-0.412,0-0.628,0.293-0.628,0.731v0.155H76.931z M79.405,108.428
			c-0.187,0.147-0.413,0.243-0.58,0.283c-0.55,0.126-0.766,0.409-0.766,0.91c0,0.43,0.147,0.783,0.51,0.783
			c0.364,0,0.835-0.249,0.835-0.867V108.428z"/>
		<path fill="#FFFFFF" d="M81.957,104.007h1.355v1.611h0.786v0.981h-0.786v3.041c0,0.439,0.088,0.617,0.481,0.617
			c0.108,0,0.216-0.01,0.304-0.02v1.003c-0.295,0.031-0.57,0.063-0.884,0.063c-1.06,0-1.257-0.348-1.257-1.484V106.6H81.27v-0.981
			h0.687V104.007z"/>
		<path fill="#FFFFFF" d="M84.864,104.007h1.355v1.611h0.785v0.981h-0.785v3.041c0,0.439,0.087,0.617,0.48,0.617
			c0.109,0,0.217-0.01,0.305-0.02v1.003c-0.294,0.031-0.57,0.063-0.884,0.063c-1.061,0-1.257-0.348-1.257-1.484V106.6h-0.687v-0.981
			h0.687V104.007z"/>
		<path fill="#FFFFFF" d="M88.634,108.649v0.45c0,0.657,0.167,1.305,0.668,1.305c0.452,0,0.639-0.364,0.716-1.055h1.218
			c-0.049,1.309-0.638,2.038-1.915,2.038c-1.964,0-2.042-1.611-2.042-3.011c0-1.504,0.275-2.907,2.101-2.907
			c1.581,0,1.935,1.13,1.935,2.854v0.326H88.634z M90.018,107.79c-0.028-0.856-0.127-1.336-0.687-1.336
			c-0.54,0-0.697,0.594-0.697,1.116v0.22H90.018z"/>
		<path fill="#FFFFFF" d="M92.022,105.618h1.296v0.751h0.02c0.275-0.542,0.658-0.899,1.218-0.899c0.078,0,0.167,0.011,0.245,0.021
			v1.382c-0.136-0.013-0.285-0.021-0.422-0.021c-0.471,0-1.001,0.261-1.001,1.013v3.377h-1.354V105.618z"/>
		<path fill="#FFFFFF" d="M95.468,112.003c0.117,0.022,0.236,0.034,0.353,0.034c0.5,0,0.688-0.293,0.727-0.796l-1.483-5.623h1.414
			l0.786,3.888h0.02l0.687-3.888h1.355l-1.277,5.247c-0.472,1.944-0.775,2.216-2.032,2.216h-0.55V112.003z"/>
		<path fill="#FFFFFF" d="M102.223,103.777h2.612c1.159,0,1.865,0.647,1.865,1.923c0,0.994-0.373,1.662-1.168,1.84v0.021
			c0.962,0.138,1.109,0.7,1.13,2.28c0.01,0.783,0.049,1.189,0.313,1.338v0.063h-1.532c-0.137-0.211-0.167-0.491-0.177-0.783
			l-0.039-1.434c-0.019-0.584-0.265-0.94-0.835-0.94h-0.755v3.157h-1.414V103.777z M103.637,107.038h0.588
			c0.678,0,1.061-0.314,1.061-1.117c0-0.69-0.343-1.035-0.981-1.035h-0.668V107.038z"/>
		<path fill="#FFFFFF" d="M108.802,108.649v0.45c0,0.657,0.167,1.305,0.667,1.305c0.452,0,0.639-0.364,0.717-1.055h1.218
			c-0.05,1.309-0.639,2.038-1.916,2.038c-1.962,0-2.041-1.611-2.041-3.011c0-1.504,0.274-2.907,2.101-2.907
			c1.581,0,1.935,1.13,1.935,2.854v0.326H108.802z M110.186,107.79c-0.029-0.856-0.127-1.336-0.687-1.336
			c-0.541,0-0.697,0.594-0.697,1.116v0.22H110.186z"/>
		<path fill="#FFFFFF" d="M112.19,105.618h1.296v0.595h0.019c0.294-0.523,0.668-0.743,1.198-0.743c1.109,0,1.62,0.868,1.62,2.958
			c0,2.092-0.51,2.96-1.62,2.96c-0.511,0-0.854-0.221-1.139-0.671h-0.02v2.364h-1.354V105.618z M114.262,110.28
			c0.588,0,0.706-0.629,0.706-1.853c0-1.223-0.118-1.85-0.706-1.85c-0.6,0-0.717,0.627-0.717,1.85
			C113.544,109.651,113.662,110.28,114.262,110.28z"/>
		<path fill="#FFFFFF" d="M117.148,103.777h1.354v7.464h-1.354V103.777z"/>
		<path fill="#FFFFFF" d="M119.445,107.341v-0.136c0-1.295,0.835-1.735,1.856-1.735c1.61,0,1.914,0.713,1.914,1.726v2.96
			c0,0.522,0.03,0.762,0.167,1.086h-1.295c-0.089-0.18-0.128-0.398-0.167-0.583h-0.02c-0.314,0.583-0.697,0.729-1.345,0.729
			c-0.942,0-1.277-0.858-1.277-1.611c0-1.056,0.402-1.483,1.336-1.754l0.765-0.221c0.403-0.116,0.541-0.281,0.541-0.658
			c0-0.431-0.177-0.689-0.628-0.689c-0.412,0-0.628,0.293-0.628,0.731v0.155H119.445z M121.92,108.428
			c-0.187,0.147-0.412,0.243-0.579,0.283c-0.551,0.126-0.766,0.409-0.766,0.91c0,0.43,0.146,0.783,0.51,0.783
			s0.834-0.249,0.834-0.867V108.428z"/>
		<path fill="#FFFFFF" d="M126.721,107.645c0-0.542-0.098-1.128-0.607-1.128c-0.669,0-0.776,0.627-0.776,1.924
			c0,1.39,0.117,1.964,0.727,1.964c0.451,0,0.657-0.408,0.657-1.316h1.296c0,1.473-0.579,2.3-2.013,2.3
			c-1.354,0-2.022-0.7-2.022-2.96c0-2.31,0.893-2.958,2.141-2.958c1.246,0,1.895,0.848,1.895,2.175H126.721z"/>
		<path fill="#FFFFFF" d="M129.882,108.649v0.45c0,0.657,0.167,1.305,0.668,1.305c0.452,0,0.638-0.364,0.717-1.055h1.218
			c-0.049,1.309-0.638,2.038-1.915,2.038c-1.964,0-2.042-1.611-2.042-3.011c0-1.504,0.274-2.907,2.101-2.907
			c1.58,0,1.934,1.13,1.934,2.854v0.326H129.882z M131.267,107.79c-0.03-0.856-0.128-1.336-0.687-1.336
			c-0.541,0-0.698,0.594-0.698,1.116v0.22H131.267z"/>
		<path fill="#FFFFFF" d="M133.271,105.618h1.296v0.574h0.02c0.344-0.513,0.766-0.723,1.335-0.723c0.619,0,1.07,0.325,1.218,0.899
			h0.019c0.207-0.594,0.697-0.899,1.336-0.899c0.894,0,1.315,0.598,1.315,1.685v4.087h-1.355v-3.931c0-0.47-0.147-0.732-0.53-0.732
			c-0.432,0-0.708,0.314-0.708,0.962v3.701h-1.354v-3.931c0-0.47-0.147-0.732-0.53-0.732c-0.432,0-0.707,0.314-0.707,0.962v3.701
			h-1.354V105.618z"/>
		<path fill="#FFFFFF" d="M141.871,108.649v0.45c0,0.657,0.167,1.305,0.668,1.305c0.451,0,0.638-0.364,0.716-1.055h1.218
			c-0.049,1.309-0.638,2.038-1.915,2.038c-1.963,0-2.042-1.611-2.042-3.011c0-1.504,0.275-2.907,2.101-2.907
			c1.581,0,1.934,1.13,1.934,2.854v0.326H141.871z M143.255,107.79c-0.029-0.856-0.127-1.336-0.687-1.336
			c-0.54,0-0.697,0.594-0.697,1.116v0.22H143.255z"/>
		<path fill="#FFFFFF" d="M145.259,105.618h1.295v0.657h0.021c0.284-0.554,0.776-0.806,1.344-0.806c0.844,0,1.346,0.491,1.346,1.601
			v4.171h-1.355v-3.879c0-0.564-0.176-0.784-0.579-0.784c-0.462,0-0.718,0.305-0.718,0.932v3.731h-1.354V105.618z"/>
		<path fill="#FFFFFF" d="M150.463,104.007h1.355v1.611h0.786v0.981h-0.786v3.041c0,0.439,0.087,0.617,0.481,0.617
			c0.107,0,0.216-0.01,0.305-0.02v1.003c-0.295,0.031-0.57,0.063-0.885,0.063c-1.06,0-1.256-0.348-1.256-1.484V106.6h-0.688v-0.981
			h0.688V104.007z"/>
		<path fill="#FFFFFF" d="M163.067,104.078h0.764l0.944,5.825h0.017l0.876-5.825h0.918l0.876,5.825h0.017l0.944-5.825h0.764
			l-1.274,7.123h-0.928l-0.849-5.767h-0.019l-0.892,5.767h-0.927L163.067,104.078z"/>
		<path fill="#FFFFFF" d="M170.079,108.626c0,0.818,0,2.057,0.894,2.057c0.693,0,0.788-0.839,0.788-1.238h0.729
			c0,0.568-0.295,1.896-1.561,1.896c-1.136,0-1.613-0.908-1.613-2.743c0-1.337,0.226-2.883,1.656-2.883
			c1.421,0,1.552,1.428,1.552,2.573v0.339H170.079z M171.761,107.969v-0.291c0-0.597-0.164-1.305-0.806-1.305
			c-0.763,0-0.849,1.076-0.849,1.396v0.2H171.761z"/>
		<path fill="#FFFFFF" d="M178.869,111.201h-0.763v-3.433h-2.123v3.433h-0.763v-7.123h0.763v2.914h2.123v-2.914h0.763V111.201z"/>
		<path fill="#FFFFFF" d="M181.192,105.714c1.344,0,1.673,1.307,1.673,2.814c0,1.504-0.338,2.812-1.673,2.812
			c-1.344,0-1.674-1.308-1.674-2.812C179.518,107.021,179.856,105.714,181.192,105.714z M182.102,108.528
			c0-1.159-0.147-2.155-0.927-2.155c-0.737,0-0.893,0.996-0.893,2.155c0,1.155,0.147,2.154,0.893,2.154
			C181.946,110.683,182.102,109.684,182.102,108.528z"/>
		<path fill="#FFFFFF" d="M183.489,105.854h0.693v0.659h0.018c0.096-0.399,0.503-0.799,1.005-0.799c1.101,0,1.517,1.128,1.517,2.713
			c0,1.217-0.313,2.913-1.517,2.913c-0.416,0-0.806-0.29-0.971-0.748h-0.017v2.363h-0.729V105.854z M185.11,110.622
			c0.676,0,0.85-0.817,0.85-2.195c0-1.178-0.174-1.996-0.85-1.996c-0.807,0-0.937,0.88-0.937,2.098
			C184.173,109.563,184.33,110.622,185.11,110.622z"/>
		<path fill="#FFFFFF" d="M189.591,104.298h0.729v1.556h0.806v0.659h-0.806v3.431c0,0.43,0.095,0.599,0.477,0.599
			c0.156,0,0.243-0.021,0.321-0.029v0.688c-0.096,0.02-0.286,0.06-0.59,0.06c-0.753,0-0.936-0.359-0.936-1.058v-3.69h-0.676v-0.659
			h0.676V104.298z"/>
		<path fill="#FFFFFF" d="M192.962,105.714c1.344,0,1.673,1.307,1.673,2.814c0,1.504-0.337,2.812-1.673,2.812
			c-1.343,0-1.673-1.308-1.673-2.812C191.289,107.021,191.628,105.714,192.962,105.714z M193.873,108.528
			c0-1.159-0.147-2.155-0.927-2.155c-0.737,0-0.894,0.996-0.894,2.155c0,1.155,0.148,2.154,0.894,2.154
			C193.718,110.683,193.873,109.684,193.873,108.528z"/>
		<path fill="#FFFFFF" d="M196.421,104.078h0.841l1.179,3.331l1.222-3.331h0.797l-1.638,4.328v2.795h-0.762v-2.795L196.421,104.078z
			"/>
		<path fill="#FFFFFF" d="M201.613,105.714c1.344,0,1.672,1.307,1.672,2.814c0,1.504-0.337,2.812-1.672,2.812
			c-1.343,0-1.673-1.308-1.673-2.812C199.94,107.021,200.279,105.714,201.613,105.714z M202.524,108.528
			c0-1.159-0.147-2.155-0.928-2.155c-0.737,0-0.893,0.996-0.893,2.155c0,1.155,0.147,2.154,0.893,2.154
			C202.368,110.683,202.524,109.684,202.524,108.528z"/>
		<path fill="#FFFFFF" d="M206.97,111.201h-0.693v-0.629h-0.018c-0.19,0.487-0.676,0.768-1.127,0.768
			c-1.222,0-1.222-1.066-1.222-1.696v-3.79h0.728v3.69c0,0.409,0.026,1.078,0.685,1.078c0.391,0,0.919-0.3,0.919-1.078v-3.69h0.727
			V111.201z"/>
		<path fill="#FFFFFF" d="M213.116,111.201h-3.433c0-1.318,0.641-2.215,1.327-2.894l0.501-0.487c0.495-0.491,0.815-0.92,0.815-1.698
			c0-0.607-0.235-1.266-0.893-1.266c-0.944,0-0.972,1.127-0.972,1.527h-0.762c0-1.337,0.485-2.246,1.742-2.246
			c1.422,0,1.647,1.267,1.647,1.885c0,1.078-0.39,1.646-1.075,2.326l-0.867,0.868c-0.337,0.327-0.581,0.736-0.667,1.204h2.636
			V111.201z"/>
		<path fill="#FFFFFF" d="M215.604,104.137h0.729v4.64h0.693v0.717h-0.693v1.707h-0.729v-1.707h-2.219v-0.788L215.604,104.137z
			 M214.044,108.777h1.561v-3.263h-0.017L214.044,108.777z"/>
		<path fill="#FFFFFF" d="M221.584,111.201h-0.762v-3.433h-2.124v3.433h-0.762v-7.123h0.762v2.914h2.124v-2.914h0.762V111.201z"/>
		<path fill="#FFFFFF" d="M223.908,105.714c1.343,0,1.672,1.307,1.672,2.814c0,1.504-0.337,2.812-1.672,2.812
			c-1.343,0-1.673-1.308-1.673-2.812C222.235,107.021,222.573,105.714,223.908,105.714z M224.818,108.528
			c0-1.159-0.147-2.155-0.928-2.155c-0.737,0-0.893,0.996-0.893,2.155c0,1.155,0.147,2.154,0.893,2.154
			C224.662,110.683,224.818,109.684,224.818,108.528z"/>
		<path fill="#FFFFFF" d="M229.265,111.201h-0.694v-0.629h-0.017c-0.191,0.487-0.677,0.768-1.126,0.768
			c-1.223,0-1.223-1.066-1.223-1.696v-3.79h0.728v3.69c0,0.409,0.027,1.078,0.685,1.078c0.39,0,0.919-0.3,0.919-1.078v-3.69h0.729
			V111.201z"/>
		<path fill="#FFFFFF" d="M230.114,105.854h0.729v0.799h0.017c0.208-0.509,0.485-0.938,1.005-0.938c0.148,0,0.251,0.021,0.32,0.062
			v0.816c-0.069-0.01-0.155-0.041-0.389-0.041c-0.365,0-0.953,0.38-0.953,1.27v3.381h-0.729V105.854z"/>
		<path fill="#FFFFFF" d="M234.569,107.419c0-0.678-0.156-1.046-0.685-1.046c-0.235,0-0.755,0.067-0.755,0.816
			c0,0.631,0.572,0.749,1.144,0.97c0.564,0.219,1.136,0.447,1.136,1.505c0,1.128-0.633,1.676-1.5,1.676
			c-1.577,0-1.595-1.348-1.595-1.896h0.729c0,0.647,0.156,1.238,0.866,1.238c0.235,0,0.772-0.131,0.772-0.891
			c0-0.716-0.573-0.866-1.136-1.086c-0.563-0.22-1.145-0.409-1.145-1.517c0-0.996,0.676-1.476,1.483-1.476
			c1.353,0,1.403,1.077,1.413,1.705H234.569z"/>
		<path fill="#FFFFFF" d="M237.864,107.47c0-1.218,0.45-1.756,1.559-1.756c1.413,0,1.413,0.979,1.413,1.535v2.984
			c0,0.22,0,0.431,0.226,0.431c0.095,0,0.138-0.023,0.173-0.053v0.601c-0.052,0.009-0.243,0.049-0.425,0.049
			c-0.277,0-0.624,0-0.659-0.688h-0.017c-0.235,0.478-0.685,0.768-1.119,0.768c-0.867,0-1.265-0.598-1.265-1.558
			c0-0.748,0.277-1.265,0.875-1.475l0.979-0.339c0.529-0.19,0.529-0.357,0.529-0.81c0-0.497-0.26-0.786-0.745-0.786
			c-0.799,0-0.799,0.857-0.799,1.046v0.051H237.864z M240.108,108.287c-0.269,0.329-0.911,0.4-1.239,0.629
			c-0.235,0.17-0.356,0.38-0.356,0.849c0,0.538,0.165,0.918,0.66,0.918c0.477,0,0.936-0.47,0.936-1.019V108.287z"/>
		<path fill="#FFFFFF" d="M243.801,104.078h1.655c1.924,0,2.167,1.596,2.167,3.561c0,1.796-0.391,3.563-2.089,3.563h-1.733V104.078z
			 M244.563,110.481h0.798c1.317,0,1.464-1.556,1.464-2.833c0-1.377-0.078-2.852-1.464-2.852h-0.798V110.481z"/>
		<path fill="#FFFFFF" d="M248.3,107.47c0-1.218,0.449-1.756,1.56-1.756c1.413,0,1.413,0.979,1.413,1.535v2.984
			c0,0.22,0,0.431,0.227,0.431c0.094,0,0.137-0.023,0.173-0.053v0.601c-0.053,0.009-0.244,0.049-0.425,0.049
			c-0.277,0-0.624,0-0.66-0.688h-0.017c-0.234,0.478-0.685,0.768-1.118,0.768c-0.867,0-1.267-0.598-1.267-1.558
			c0-0.748,0.278-1.265,0.876-1.475l0.979-0.339c0.529-0.19,0.529-0.357,0.529-0.81c0-0.497-0.26-0.786-0.745-0.786
			c-0.797,0-0.797,0.857-0.797,1.046v0.051H248.3z M250.543,108.287c-0.268,0.329-0.909,0.4-1.238,0.629
			c-0.234,0.17-0.356,0.38-0.356,0.849c0,0.538,0.165,0.918,0.659,0.918c0.477,0,0.935-0.47,0.935-1.019V108.287z"/>
		<path fill="#FFFFFF" d="M251.767,105.854h0.797l0.918,4.29h0.018l0.814-4.29h0.799l-1.344,5.706
			c-0.173,0.738-0.365,1.396-1.24,1.396c-0.286,0-0.407-0.02-0.528-0.029v-0.657c0.104,0.02,0.243,0.029,0.425,0.029
			c0.338,0,0.485-0.229,0.572-0.52l0.139-0.468L251.767,105.854z"/>
	</g>
	<g>
		<path fill="#FFCB05" d="M67.297,132.629c2.681,0,4.574,0.084,5.681,0.252c1.257,0.184,2.129,0.738,2.618,1.668
			c0.248,0.463,0.399,0.979,0.454,1.55c0.055,0.57,0.081,1.867,0.081,3.894c0,1.587-0.008,2.602-0.024,3.041
			c-0.017,0.441-0.064,0.871-0.14,1.294c-0.185,1.075-0.722,1.853-1.607,2.33c-0.365,0.196-0.797,0.343-1.294,0.439
			c-0.498,0.094-1.204,0.159-2.119,0.194c-1.099,0.048-2.313,0.071-3.638,0.071c-2.688,0-4.584-0.082-5.69-0.251
			c-1.258-0.19-2.132-0.748-2.618-1.669c-0.248-0.47-0.4-0.989-0.455-1.565c-0.055-0.572-0.083-1.931-0.083-4.075
			c0-1.463,0.01-2.413,0.026-2.854c0.017-0.439,0.063-0.868,0.139-1.281c0.186-1.084,0.721-1.861,1.608-2.333
			c0.363-0.203,0.795-0.352,1.293-0.442c0.498-0.09,1.204-0.155,2.119-0.19C64.727,132.653,65.943,132.629,67.297,132.629z
			 M67.04,136.371c-1.952,0-3.141,0.131-3.566,0.392c-0.275,0.171-0.464,0.484-0.567,0.94c-0.104,0.456-0.155,1.198-0.155,2.224
			c0,1.188,0.061,2.012,0.181,2.464c0.12,0.454,0.355,0.761,0.707,0.923c0.247,0.112,0.531,0.186,0.85,0.216
			c0.319,0.031,1.164,0.063,2.531,0.091c1.752-0.036,2.763-0.068,3.03-0.097c0.771-0.084,1.261-0.335,1.476-0.752
			c0.212-0.42,0.318-1.347,0.318-2.779c0-1.141-0.06-1.938-0.181-2.391c-0.119-0.453-0.356-0.761-0.706-0.923
			c-0.261-0.119-0.559-0.193-0.891-0.223C69.731,136.43,68.723,136.401,67.04,136.371z"/>
		<path fill="#FFCB05" d="M95.445,141.277v3.238h-2.722v2.68h-4.072v-2.68H77.405v-5.519l8.37-6.2h6.949v8.48H95.445z
			 M88.651,141.277v-5.146h-0.865l-6.547,4.576v0.57H88.651z"/>
		<path fill="#FFCB05" d="M104.902,132.629c2.681,0,4.573,0.084,5.68,0.252c1.257,0.184,2.131,0.738,2.619,1.668
			c0.247,0.463,0.399,0.979,0.454,1.55s0.083,1.867,0.083,3.894c0,1.587-0.009,2.602-0.026,3.041
			c-0.018,0.441-0.064,0.871-0.14,1.294c-0.185,1.075-0.721,1.853-1.607,2.33c-0.364,0.196-0.795,0.343-1.294,0.439
			c-0.499,0.094-1.205,0.159-2.118,0.194c-1.1,0.048-2.313,0.071-3.64,0.071c-2.687,0-4.584-0.082-5.69-0.251
			c-1.258-0.19-2.13-0.748-2.618-1.669c-0.248-0.47-0.398-0.989-0.454-1.565c-0.055-0.572-0.082-1.931-0.082-4.075
			c0-1.463,0.008-2.413,0.024-2.854c0.017-0.439,0.064-0.868,0.141-1.281c0.185-1.084,0.72-1.861,1.607-2.333
			c0.365-0.203,0.797-0.352,1.294-0.442c0.498-0.09,1.204-0.155,2.118-0.19C102.331,132.653,103.548,132.629,104.902,132.629z
			 M104.644,136.371c-1.951,0-3.141,0.131-3.566,0.392c-0.275,0.171-0.464,0.484-0.568,0.94c-0.103,0.456-0.154,1.198-0.154,2.224
			c0,1.188,0.06,2.012,0.181,2.464c0.12,0.454,0.356,0.761,0.706,0.923c0.247,0.112,0.53,0.186,0.85,0.216
			c0.32,0.031,1.164,0.063,2.532,0.091c1.752-0.036,2.761-0.068,3.031-0.097c0.769-0.084,1.261-0.335,1.474-0.752
			c0.213-0.42,0.319-1.347,0.319-2.779c0-1.141-0.061-1.938-0.18-2.391c-0.122-0.453-0.356-0.761-0.707-0.923
			c-0.261-0.119-0.558-0.193-0.892-0.223C107.335,136.43,106.328,136.401,104.644,136.371z"/>
		<path fill="#FFCB05" d="M133.05,141.277v3.238h-2.721v2.68h-4.074v-2.68h-11.246v-5.519l8.371-6.2h6.949v8.48H133.05z
			 M126.255,141.277v-5.146h-0.865l-6.546,4.576v0.57H126.255z"/>
		<path fill="#FFCB05" d="M143.089,137.808h-4.083l-0.01-0.863c0-1.36,0.228-2.314,0.68-2.873c0.289-0.355,0.666-0.632,1.129-0.82
			c0.464-0.19,1.098-0.33,1.902-0.421c1.23-0.144,2.983-0.213,5.257-0.213c1.979,0,3.407,0.054,4.283,0.157
			c0.877,0.106,1.538,0.304,1.984,0.593c0.475,0.302,0.811,0.704,1.011,1.213c0.199,0.507,0.299,1.2,0.299,2.078
			c0,1.02-0.162,1.753-0.485,2.198c-0.324,0.446-0.924,0.762-1.805,0.945c0.812,0.19,1.364,0.388,1.66,0.6
			c0.316,0.227,0.544,0.558,0.686,0.999c0.142,0.438,0.211,1.045,0.211,1.816c0,1.183-0.186,2.036-0.557,2.563
			c-0.467,0.649-1.31,1.076-2.525,1.283c-1.216,0.208-3.509,0.311-6.876,0.311c-1.245,0-2.179-0.026-2.805-0.078
			c-0.624-0.053-1.223-0.157-1.793-0.313c-1.257-0.343-1.978-1.133-2.165-2.373c-0.089-0.582-0.134-1.447-0.134-2.594h4.083
			c0.006,0.133,0.009,0.221,0.009,0.262c0.008,0.572,0.058,0.959,0.15,1.166c0.093,0.208,0.28,0.348,0.562,0.417
			c0.248,0.058,1.437,0.101,3.567,0.127c1.779-0.04,2.833-0.077,3.159-0.107c0.328-0.025,0.579-0.098,0.758-0.21
			c0.274-0.174,0.412-0.505,0.412-0.992c0-0.604-0.203-0.964-0.608-1.085c-0.323-0.098-1.336-0.148-3.042-0.148h-2.483v-3.1h3.247
			c1.058,0,1.759-0.082,2.104-0.241c0.342-0.164,0.515-0.493,0.515-0.994c0-0.527-0.18-0.858-0.537-0.99
			c-0.349-0.126-1.484-0.192-3.402-0.192c-1.587,0-2.625,0.024-3.113,0.072c-0.488,0.043-0.811,0.145-0.968,0.3
			c-0.119,0.111-0.188,0.23-0.211,0.358C143.132,136.785,143.11,137.169,143.089,137.808z"/>
		<path fill="#FFCB05" d="M158.381,132.797h15.66v3.101h-9.165c-1.533,0.008-2.444-0.027-2.732-0.104v1.539
			c0,0.458-0.012,0.816-0.032,1.077c0.448-0.422,0.881-0.688,1.299-0.803c0.708-0.189,2.104-0.285,4.186-0.285
			c2.976,0,4.882,0.279,5.721,0.834c0.488,0.324,0.84,0.791,1.058,1.396c0.216,0.609,0.324,1.44,0.324,2.495
			c0,1.386-0.144,2.438-0.434,3.154c-0.289,0.718-0.773,1.229-1.453,1.528c-0.563,0.262-1.221,0.434-1.969,0.52
			c-0.75,0.084-1.946,0.125-3.588,0.125c-2.145,0-3.697-0.027-4.66-0.083c-0.962-0.056-1.793-0.166-2.494-0.328
			c-0.819-0.188-1.401-0.564-1.748-1.123c-0.347-0.56-0.521-1.4-0.521-2.526c0-0.107,0.004-0.295,0.011-0.569h4.083
			c0.02,0.548,0.106,0.9,0.257,1.055c0.157,0.149,0.527,0.25,1.109,0.312c0.58,0.061,1.521,0.088,2.818,0.088
			c1.506,0,2.468-0.011,2.887-0.029c0.419-0.021,0.743-0.079,0.969-0.169c0.22-0.092,0.371-0.269,0.453-0.526
			c0.083-0.263,0.124-0.69,0.124-1.29c0-0.541-0.062-0.918-0.186-1.138c-0.124-0.219-0.357-0.363-0.701-0.434
			c-0.763-0.139-2.251-0.211-4.463-0.211c-1.251,0-2.074,0.063-2.469,0.185c-0.396,0.123-0.594,0.374-0.594,0.755
			c0,0.036,0.004,0.094,0.012,0.18h-3.763V132.797z"/>
		<path fill="#FFCB05" d="M181.138,132.797h6.782v14.398h-4.289v-10.643h-1.113l-4.155,3.585l-2.37-2.826L181.138,132.797z"/>
		<path fill="#FFCB05" d="M202.846,137.808h-4.082l-0.011-0.863c0-1.36,0.228-2.314,0.681-2.873c0.289-0.355,0.665-0.632,1.129-0.82
			c0.464-0.19,1.098-0.33,1.902-0.421c1.23-0.144,2.982-0.213,5.257-0.213c1.98,0,3.407,0.054,4.283,0.157
			c0.876,0.106,1.538,0.304,1.984,0.593c0.474,0.302,0.812,0.704,1.01,1.213c0.199,0.507,0.299,1.2,0.299,2.078
			c0,1.02-0.161,1.753-0.484,2.198c-0.323,0.446-0.925,0.762-1.803,0.945c0.81,0.19,1.364,0.388,1.659,0.6
			c0.316,0.227,0.546,0.558,0.686,0.999c0.142,0.438,0.211,1.045,0.211,1.816c0,1.183-0.185,2.036-0.556,2.563
			c-0.468,0.649-1.31,1.076-2.526,1.283c-1.217,0.208-3.508,0.311-6.876,0.311c-1.244,0-2.179-0.026-2.804-0.078
			c-0.626-0.053-1.223-0.157-1.794-0.313c-1.257-0.343-1.979-1.133-2.164-2.373c-0.09-0.582-0.134-1.447-0.134-2.594h4.082
			c0.007,0.133,0.011,0.221,0.011,0.262c0.006,0.572,0.057,0.959,0.149,1.166c0.093,0.208,0.28,0.348,0.563,0.417
			c0.246,0.058,1.435,0.101,3.566,0.127c1.779-0.04,2.833-0.077,3.16-0.107c0.326-0.025,0.579-0.098,0.758-0.21
			c0.275-0.174,0.413-0.505,0.413-0.992c0-0.604-0.204-0.964-0.608-1.085c-0.324-0.098-1.338-0.148-3.042-0.148h-2.485v-3.1h3.247
			c1.058,0,1.76-0.082,2.103-0.241c0.344-0.164,0.516-0.493,0.516-0.994c0-0.527-0.179-0.858-0.536-0.99
			c-0.351-0.126-1.484-0.192-3.402-0.192c-1.587,0-2.625,0.024-3.113,0.072c-0.489,0.043-0.812,0.145-0.97,0.3
			c-0.117,0.111-0.187,0.23-0.211,0.358C202.889,136.785,202.866,137.169,202.846,137.808z"/>
		<path fill="#FFCB05" d="M218.139,132.797h15.659v3.101h-9.166c-1.533,0.008-2.442-0.027-2.731-0.104v1.539
			c0,0.458-0.01,0.816-0.03,1.077c0.445-0.422,0.877-0.688,1.298-0.803c0.708-0.189,2.104-0.285,4.185-0.285
			c2.977,0,4.884,0.279,5.722,0.834c0.489,0.324,0.84,0.791,1.058,1.396c0.217,0.609,0.324,1.44,0.324,2.495
			c0,1.386-0.144,2.438-0.433,3.154c-0.29,0.718-0.773,1.229-1.453,1.528c-0.564,0.262-1.22,0.434-1.97,0.52
			c-0.748,0.084-1.944,0.125-3.586,0.125c-2.145,0-3.698-0.027-4.659-0.083c-0.963-0.056-1.793-0.166-2.496-0.328
			c-0.817-0.188-1.399-0.564-1.746-1.123c-0.348-0.56-0.521-1.4-0.521-2.526c0-0.107,0.003-0.295,0.009-0.569h4.083
			c0.02,0.548,0.105,0.9,0.257,1.055c0.158,0.149,0.527,0.25,1.107,0.312c0.581,0.061,1.521,0.088,2.82,0.088
			c1.506,0,2.466-0.011,2.885-0.029c0.419-0.021,0.743-0.079,0.969-0.169c0.221-0.092,0.372-0.269,0.455-0.526
			c0.082-0.263,0.124-0.69,0.124-1.29c0-0.541-0.062-0.918-0.186-1.138c-0.123-0.219-0.358-0.363-0.7-0.434
			c-0.764-0.139-2.252-0.211-4.465-0.211c-1.25,0-2.074,0.063-2.469,0.185c-0.395,0.123-0.593,0.374-0.593,0.755
			c0,0.036,0.003,0.094,0.01,0.18h-3.762V132.797z"/>
		<path fill="#FFCB05" d="M237.132,143.008h4.084c0.006,0.085,0.013,0.14,0.019,0.169c0.013,0.267,0.053,0.447,0.114,0.538
			s0.189,0.166,0.382,0.233c0.404,0.124,1.375,0.188,2.907,0.188c1.766,0,2.939-0.062,3.52-0.183
			c0.581-0.125,0.933-0.385,1.057-0.776c0.104-0.33,0.158-1.109,0.164-2.331c-0.307,0.357-0.607,0.602-0.896,0.739
			c-0.454,0.217-1.027,0.368-1.722,0.452c-0.695,0.085-1.659,0.126-2.896,0.126c-2.722,0-4.515-0.189-5.382-0.569
			c-0.617-0.275-1.057-0.726-1.313-1.354c-0.259-0.63-0.386-1.577-0.386-2.843c0-1.54,0.21-2.615,0.627-3.229
			c0.414-0.596,1.142-1.003,2.186-1.217c1.045-0.216,2.815-0.322,5.309-0.322c2.151,0,3.773,0.072,4.867,0.222
			c1.094,0.146,1.884,0.397,2.371,0.748c0.564,0.4,0.93,1.038,1.098,1.909c0.169,0.87,0.253,2.548,0.253,5.033
			c0,1.885-0.083,3.203-0.247,3.963c-0.275,1.304-1.114,2.104-2.516,2.406c-1.45,0.311-3.821,0.464-7.114,0.464
			c-1.539,0-2.705-0.055-3.499-0.164c-0.793-0.106-1.413-0.304-1.861-0.584c-0.447-0.275-0.745-0.655-0.896-1.139
			C237.206,145.002,237.132,144.176,237.132,143.008z M244.977,135.866c-1.842,0-2.975,0.081-3.403,0.243
			c-0.425,0.16-0.639,0.594-0.639,1.297c0,0.443,0.051,0.763,0.154,0.958c0.104,0.199,0.293,0.332,0.568,0.405
			c0.384,0.103,1.389,0.156,3.01,0.156c2.33,0,3.681-0.077,4.053-0.232c0.226-0.1,0.385-0.244,0.479-0.438
			c0.094-0.195,0.139-0.487,0.139-0.88c0-0.416-0.049-0.718-0.149-0.907c-0.1-0.192-0.281-0.324-0.542-0.404
			C248.2,135.933,246.976,135.866,244.977,135.866z"/>
	</g>
	<g>
		<path fill="#00A651" d="M282.598,130.268h2.754v5.33h0.05c0.51-1.07,1.631-1.714,3.109-1.714c2.088,0,4.228,0.821,4.228,6.151
			c0,4.129-1.274,6.467-4.483,6.467c-1.962,0-2.65-1.001-3.006-1.783h-0.051v1.473h-2.601V130.268z M287.515,144.586
			c1.911,0,2.318-1.717,2.318-4.438c0-3.234-0.56-4.348-2.139-4.348c-2.114,0-2.496,1.647-2.496,4.528
			C285.198,142.892,285.631,144.586,287.515,144.586z"/>
		<path fill="#00A651" d="M303.538,143.696c0,0.443,0.308,0.847,0.715,0.847c0.179,0,0.354-0.024,0.457-0.067v1.561
			c-0.33,0.134-0.815,0.29-1.351,0.29c-1.221,0-2.24-0.424-2.318-1.584h-0.05c-0.737,1.183-1.808,1.76-3.413,1.76
			c-2.19,0-3.567-1.07-3.567-3.367c0-2.674,1.327-3.232,3.186-3.767l2.14-0.514c0.992-0.247,1.604-0.492,1.604-1.54
			c0-1.092-0.433-1.783-1.886-1.783c-1.832,0-2.088,1.138-2.088,2.296h-2.598c0-2.542,1.196-3.943,4.814-3.943
			c2.42,0,4.354,0.821,4.354,2.941V143.696z M300.94,139.858c-0.715,0.49-2.241,0.781-3.058,1.114
			c-0.788,0.335-1.121,1.049-1.121,1.94c0,1.004,0.563,1.806,1.709,1.806c1.656,0,2.47-1.091,2.47-2.853V139.858z"/>
		<path fill="#00A651" d="M304.813,134.192h1.885v-3.411h2.751v3.411h2.242v1.787h-2.242v7.155c0,0.938,0.305,1.271,1.248,1.271
			c0.407,0,0.738-0.022,0.994-0.065v1.784c-0.587,0.134-1.351,0.201-2.216,0.201c-1.86,0-2.777-0.448-2.777-2.899v-7.447h-1.885
			V134.192z"/>
		<path fill="#00A651" d="M311.59,134.192h1.885v-3.411h2.752v3.411h2.24v1.787h-2.24v7.155c0,0.938,0.304,1.271,1.247,1.271
			c0.408,0,0.739-0.022,0.993-0.065v1.784c-0.585,0.134-1.352,0.201-2.217,0.201c-1.857,0-2.775-0.448-2.775-2.899v-7.447h-1.885
			V134.192z"/>
		<path fill="#00A651" d="M321.958,140.503v0.692c0,1.605,0.229,3.659,2.293,3.659c1.959,0,2.188-1.963,2.188-2.677h2.6
			c0,2.652-1.834,4.324-4.814,4.324c-2.242,0-5.02-0.577-5.02-6.133c0-3.144,0.767-6.485,5.071-6.485
			c3.819,0,4.838,2.004,4.838,5.349v1.271H321.958z M326.365,138.854v-0.646c0-1.518-0.563-2.677-2.114-2.677
			c-1.759,0-2.293,1.518-2.293,3.076v0.247H326.365z"/>
		<path fill="#00A651" d="M331.078,134.192h2.751v1.873h0.049c0.613-1.336,1.631-2.182,3.186-2.182c0.307,0,0.483,0.041,0.662,0.086
			v2.454c-0.203-0.048-0.688-0.136-1.147-0.136c-1.247,0-2.749,0.492-2.749,2.722v7.182h-2.751V134.192z"/>
		<path fill="#00A651" d="M341.089,134.192l2.368,9.01h0.051l2.191-9.01h2.877l-3.769,12.446c-1.071,3.279-1.961,3.702-4.789,3.657
			c-0.358,0-0.738-0.044-1.096-0.091v-1.917c0.306,0.046,0.586,0.089,0.891,0.089c0.943,0,1.555-0.179,1.861-0.937l0.356-0.98
			l-3.897-12.268H341.089z"/>
		<path fill="#00A651" d="M349.799,130.268h2.752v5.22l0.076,0.044c0.765-1.025,1.964-1.647,3.362-1.647
			c2.09,0,3.416,0.821,3.416,3.252v9.056h-2.751v-8.229c0-1.561-0.537-2.162-1.913-2.162c-1.119,0-2.19,0.779-2.19,2.341v8.051
			h-2.752V130.268z"/>
		<path fill="#00A651" d="M366.31,133.884c3.998,0,5.116,2.584,5.116,6.308c0,3.726-1.298,6.311-5.116,6.311
			c-3.798,0-5.097-2.585-5.097-6.311C361.213,136.468,362.334,133.884,366.31,133.884z M366.31,144.719
			c2.011,0,2.366-1.471,2.366-4.527c0-2.653-0.355-4.525-2.366-4.525c-1.988,0-2.347,1.872-2.347,4.525
			C363.963,143.248,364.321,144.719,366.31,144.719z"/>
		<path fill="#00A651" d="M373.238,134.192h2.596v1.474h0.053c0.56-1.071,1.578-1.782,3.081-1.782c3.134,0,4.406,2.339,4.406,6.465
			c0,5.041-2.342,6.153-4.228,6.153c-1.477,0-2.6-0.644-3.107-1.715h-0.05v5.328h-2.751V134.192z M378.179,144.586
			c1.579,0,2.294-1.027,2.294-4.348c0-2.723-0.408-4.438-2.319-4.438c-1.887,0-2.319,1.693-2.319,4.258
			C375.834,142.936,376.243,144.586,378.179,144.586z"/>
		<path fill="#00A651" d="M399.398,133.947l-1.911,6.021c-0.101,0.359-0.279,0.781-0.279,1.094s0.179,0.489,0.839,0.489
			c1.429,0,3.135-2.029,3.135-4.503c0-3.165-3.184-5.311-6.725-5.311c-4.433,0-7.541,3.079-7.541,6.557
			c0,3.903,3.44,6.424,7.336,6.424c2.701,0,4.893-0.757,6.292-1.961h2.14c-1.349,2.162-4.278,3.744-8.432,3.744
			c-5.399,0-9.652-3.075-9.652-8.294c0-4.639,3.947-8.254,9.857-8.254c5.145,0,9.043,2.768,9.043,6.803c0,4.46-4,6.378-6.472,6.378
			c-1.273,0-1.808-0.556-1.783-1.313h-0.051c-0.712,0.688-1.808,1.313-3.157,1.313c-1.964,0-3.542-1.404-3.542-3.612
			c0-3.166,2.726-5.976,5.682-5.976c1.246,0,2.267,0.537,2.929,1.719l0.485-1.318H399.398z M394.278,135.196
			c-2.115,0-3.592,2.251-3.592,4.036c0,1.36,0.739,2.254,2.371,2.254c1.755,0,3.284-2.521,3.284-4.149
			C396.342,135.82,395.551,135.196,394.278,135.196z"/>
		<path fill="#00A651" d="M408.008,147.219c0,0.735,0.766,1.428,1.987,1.428c1.429,0,2.318-0.871,2.318-2.254v-1.938h-0.049
			c-0.51,1.046-1.784,1.646-3.109,1.646c-3.21,0-4.101-2.766-4.101-6.044c0-2.632,0.458-6.174,4.355-6.174
			c1.604,0,2.751,0.912,3.006,1.782h0.052v-1.474h2.597v11.421c0,2.92-1.425,4.683-5.119,4.683c-4.075,0-4.535-2.098-4.535-3.077
			H408.008z M409.945,144.184c2.14,0,2.368-2.362,2.368-4.26c0-1.962-0.279-4.124-2.19-4.124c-1.986,0-2.317,1.783-2.317,4.014
			C407.806,141.866,407.907,144.184,409.945,144.184z"/>
		<path fill="#00A651" d="M417.332,134.192h2.599v1.405h0.077c0.688-1.07,1.984-1.714,3.287-1.714c1.96,0,2.774,0.821,3.183,1.826
			c0.79-1.159,1.81-1.826,3.463-1.826c1.937,0,3.338,0.866,3.338,3.188v9.12h-2.751v-8.229c0-1.561-0.535-2.162-1.656-2.162
			s-2.19,0.779-2.19,2.341v8.051h-2.751v-8.229c0-1.561-0.535-2.162-1.68-2.162c-1.097,0-2.166,0.779-2.166,2.341v8.051h-2.752
			V134.192z"/>
		<path fill="#00A651" d="M444.742,143.696c0,0.443,0.306,0.847,0.714,0.847c0.178,0,0.357-0.024,0.46-0.067v1.561
			c-0.334,0.134-0.816,0.29-1.352,0.29c-1.222,0-2.242-0.424-2.317-1.584h-0.052c-0.739,1.183-1.809,1.76-3.413,1.76
			c-2.189,0-3.565-1.07-3.565-3.367c0-2.674,1.322-3.232,3.183-3.767l2.14-0.514c0.993-0.247,1.605-0.492,1.605-1.54
			c0-1.092-0.433-1.783-1.885-1.783c-1.836,0-2.089,1.138-2.089,2.296h-2.599c0-2.542,1.196-3.943,4.814-3.943
			c2.42,0,4.355,0.821,4.355,2.941V143.696z M442.145,139.858c-0.713,0.49-2.242,0.781-3.058,1.114
			c-0.79,0.335-1.12,1.049-1.12,1.94c0,1.004,0.561,1.806,1.706,1.806c1.656,0,2.472-1.091,2.472-2.853V139.858z"/>
		<path fill="#00A651" d="M447.365,130.091h2.754v2.409h-2.754V130.091z M447.365,134.192h2.754v11.999h-2.754V134.192z"/>
		<path fill="#00A651" d="M452.716,130.268h2.753v15.924h-2.753V130.268z"/>
		<path fill="#00A651" d="M458.218,143.248h2.906v2.943h-2.906V143.248z"/>
		<path fill="#00A651" d="M472.992,141.821c-0.178,2.876-1.299,4.681-4.688,4.681c-3.974,0-5.093-2.585-5.093-6.311
			c0-3.724,1.119-6.308,5.093-6.308c4.102-0.05,4.714,2.807,4.714,4.301h-2.751c0-1.113-0.357-2.563-1.963-2.519
			c-1.985,0-2.342,1.872-2.342,4.525c0,2.656,0.356,4.527,2.342,4.527c1.53,0.023,2.089-1.091,2.089-2.897H472.992z"/>
		<path fill="#00A651" d="M479.31,133.884c4,0,5.121,2.584,5.121,6.308c0,3.726-1.3,6.311-5.121,6.311
			c-3.794,0-5.095-2.585-5.095-6.311C474.215,136.468,475.337,133.884,479.31,133.884z M479.31,144.719
			c2.014,0,2.371-1.471,2.371-4.527c0-2.653-0.357-4.525-2.371-4.525c-1.986,0-2.343,1.872-2.343,4.525
			C476.967,143.248,477.323,144.719,479.31,144.719z"/>
		<path fill="#00A651" d="M486.367,134.192h2.599v1.405h0.077c0.686-1.07,1.987-1.714,3.284-1.714c1.963,0,2.778,0.821,3.185,1.826
			c0.79-1.159,1.81-1.826,3.466-1.826c1.936,0,3.335,0.866,3.335,3.188v9.12h-2.751v-8.229c0-1.561-0.534-2.162-1.655-2.162
			c-1.12,0-2.191,0.779-2.191,2.341v8.051h-2.751v-8.229c0-1.561-0.534-2.162-1.681-2.162c-1.094,0-2.164,0.779-2.164,2.341v8.051
			h-2.752V134.192z"/>
	</g>
</g>
</svg>
